<svg width="28" height="28" viewBox="0 0 28 28" fill="none" xmlns="http://www.w3.org/2000/svg">
<g clip-path="url(#clip0_1323_6915)" filter="url(#filter0_d_1323_6915)">
<path d="M15.7387 15.4632C15.2007 15.0878 14.6258 14.782 14.0246 14.5484C14.8244 13.8214 15.355 12.8031 15.4473 11.6631C16.6601 10.4813 18.25 9.83341 19.9543 9.83341C21.2848 9.83341 22.5623 10.2341 23.6489 10.9919C24.0383 11.2635 24.5738 11.1681 24.8453 10.7787C25.1167 10.3895 25.0214 9.85388 24.6322 9.58248C24.0942 9.20717 23.5192 8.90152 22.918 8.66771C23.8005 7.86557 24.3554 6.70894 24.3554 5.42525C24.3554 3.00876 22.3896 1.04294 19.9731 1.04294C17.5568 1.04294 15.5909 3.00876 15.5909 5.42525C15.5909 6.70374 16.1413 7.85617 17.0178 8.65798C16.8978 8.70413 16.7785 8.75298 16.6603 8.80501C16.1225 9.04167 15.617 9.33272 15.1468 9.67446C14.4984 8.06363 12.9198 6.92362 11.0797 6.92362C8.66342 6.92362 6.69743 8.88944 6.69743 11.3058C6.69743 12.5807 7.24478 13.73 8.11657 14.5314C5.78569 15.4047 3.89574 17.2804 3.12633 19.6726C2.8712 20.4658 3.00632 21.3071 3.4971 21.9806C3.98789 22.654 4.74722 23.0403 5.58041 23.0403H13.0561C13.5306 23.0403 13.9153 22.6556 13.9153 22.1809C13.9153 21.7064 13.5306 21.3217 13.0561 21.3217H5.58041C5.30263 21.3217 5.04951 21.1929 4.88586 20.9684C4.72221 20.7438 4.67723 20.4633 4.76216 20.1988C5.61146 17.5582 8.20167 15.7141 11.0609 15.7141C12.3913 15.7141 13.6689 16.1147 14.7556 16.8726C15.1448 17.1441 15.6804 17.0486 15.952 16.6594C16.2234 16.2702 16.1281 15.7346 15.7387 15.4632ZM19.9731 2.76152C21.4419 2.76152 22.6368 3.95642 22.6368 5.42525C22.6368 6.89391 21.4419 8.08898 19.9731 8.08898C18.5044 8.08898 17.3094 6.89391 17.3094 5.42525C17.3094 3.95642 18.5044 2.76152 19.9731 2.76152ZM11.0797 8.64203C12.5486 8.64203 13.7435 9.8371 13.7435 11.3058C13.7435 12.7746 12.5486 13.9695 11.0797 13.9695C9.61091 13.9695 8.41601 12.7746 8.41601 11.3058C8.41601 9.8371 9.61091 8.64203 11.0797 8.64203ZM24.9999 18.9587C24.9999 19.4332 24.6152 19.8179 24.1405 19.8179H21.7776V22.1809C21.7776 22.6556 21.3929 23.0403 20.9184 23.0403C20.4437 23.0403 20.059 22.6556 20.059 22.1809V19.8179H17.6961C17.2216 19.8179 16.8369 19.4332 16.8369 18.9587C16.8369 18.4841 17.2216 18.0994 17.6961 18.0994H20.059V15.7364C20.059 15.2619 20.4437 14.8772 20.9184 14.8772C21.3929 14.8772 21.7776 15.2619 21.7776 15.7364V18.0994H24.1405C24.6152 18.0994 24.9999 18.4841 24.9999 18.9587Z" fill="white"/>
</g>
<defs>
<filter id="filter0_d_1323_6915" x="0" y="0" width="28" height="28" filterUnits="userSpaceOnUse" color-interpolation-filters="sRGB">
<feFlood flood-opacity="0" result="BackgroundImageFix"/>
<feColorMatrix in="SourceAlpha" type="matrix" values="0 0 0 0 0 0 0 0 0 0 0 0 0 0 0 0 0 0 127 0" result="hardAlpha"/>
<feOffset dy="2"/>
<feGaussianBlur stdDeviation="1.5"/>
<feColorMatrix type="matrix" values="0 0 0 0 0 0 0 0 0 0 0 0 0 0 0 0 0 0 0.2 0"/>
<feBlend mode="normal" in2="BackgroundImageFix" result="effect1_dropShadow_1323_6915"/>
<feBlend mode="normal" in="SourceGraphic" in2="effect1_dropShadow_1323_6915" result="shape"/>
</filter>
<clipPath id="clip0_1323_6915">
<rect width="22" height="22" fill="white" transform="translate(3 1)"/>
</clipPath>
</defs>
</svg>
