<svg width="20" height="24" viewBox="0 0 20 24" fill="none" xmlns="http://www.w3.org/2000/svg">
<path fill-rule="evenodd" clip-rule="evenodd" d="M14.0244 6.02132L12.6437 7.40202C12.3919 7.65379 12.3919 8.06183 12.6437 8.3136C12.8953 8.5652 13.3035 8.5652 13.5551 8.3136L13.8356 8.03313V8.54808C13.8356 10.0961 12.5762 11.3555 11.0284 11.3555C9.4803 11.3555 8.22095 10.0961 8.22095 8.54808C8.22095 7.0002 9.4803 5.74084 11.0284 5.74084C11.3842 5.74084 11.6729 5.45232 11.6729 5.09631C11.6729 4.74048 11.3842 4.45178 11.0284 4.45178C8.76964 4.45178 6.93188 6.28937 6.93188 8.54808C6.93188 10.807 8.76964 12.6445 11.0284 12.6445C13.2871 12.6445 15.1246 10.807 15.1246 8.54825V8.03313L15.4051 8.3136C15.6567 8.5652 16.0648 8.56537 16.3167 8.3136C16.5683 8.06183 16.5683 7.65379 16.3167 7.40202L14.9358 6.02132C14.6851 5.77055 14.2769 5.76888 14.0244 6.02132Z" fill="white" stroke="white" stroke-width="0.3"/>
<path fill-rule="evenodd" clip-rule="evenodd" d="M19.2668 10.0077C19.2668 1.78938 12.0497 1 10.8275 1C6.16 1 3.13507 5.05367 3.13507 8.21439V9.36263C2.75204 9.85492 1.65768 11.262 1.13686 11.9317C0.867294 12.2783 0.71875 12.711 0.71875 13.1501C0.71875 13.9744 1.21323 14.705 1.97894 15.0117L2.58 15.252L3.55368 17.9782C4.03641 19.3302 5.32547 20.2386 6.76123 20.2386H7.76361L8.33194 22.5119C8.40378 22.7988 8.66159 23 8.95734 23H17.2416C17.4438 23 17.6345 22.905 17.7562 22.7435C17.8781 22.5822 17.917 22.3729 17.8614 22.1784L16.545 17.5708L18.6825 12.7612C19.0703 11.8885 19.2668 10.9622 19.2668 10.0077V10.0077ZM17.5046 12.2377L15.2719 17.2612C15.2106 17.3993 15.1997 17.5546 15.2412 17.6999L16.3872 21.7109H9.46054L8.89221 19.4376C8.82054 19.1508 8.56273 18.9495 8.26698 18.9495H6.76123C5.86879 18.9495 5.06766 18.3849 4.76755 17.5446L3.69618 14.5447C3.63408 14.3707 3.50014 14.2315 3.32843 14.163L2.45781 13.8148C2.01134 13.636 1.87169 13.0863 2.15434 12.7233C2.69783 12.0242 3.86537 10.5231 4.19838 10.0949C4.3439 9.90762 4.42413 9.67398 4.42413 9.43698V8.21439C4.42413 6.48305 6.25836 2.28906 10.8282 2.28906C11.8406 2.28906 17.9778 2.90489 17.9778 10.0077C17.9778 10.7808 17.8186 11.531 17.5046 12.2377Z" fill="white" stroke="white" stroke-width="0.3"/>
</svg>
