<svg width="28" height="25" viewBox="0 0 28 25" fill="none" xmlns="http://www.w3.org/2000/svg">
<g filter="url(#filter0_d_1323_6897)">
<path d="M22.4219 2.92188H5.57812C4.15655 2.92188 3 4.07842 3 5.5V16.5C3 17.9216 4.15655 19.0781 5.57812 19.0781H22.4219C23.8435 19.0781 25 17.9216 25 16.5V5.5C25 4.07842 23.8435 2.92188 22.4219 2.92188ZM23.2812 16.5C23.2812 16.9739 22.8957 17.3594 22.4219 17.3594H5.57812C5.10427 17.3594 4.71875 16.9739 4.71875 16.5V9.19531H23.2812V16.5ZM23.2812 6.61719H4.71875V5.5C4.71875 5.02614 5.10427 4.64062 5.57812 4.64062H22.4219C22.8957 4.64062 23.2812 5.02614 23.2812 5.5V6.61719Z" fill="white"/>
<path d="M17.2656 10.4844H5.92188V12.2031H17.2656V10.4844Z" fill="white"/>
</g>
<defs>
<filter id="filter0_d_1323_6897" x="0" y="-1" width="28" height="28" filterUnits="userSpaceOnUse" color-interpolation-filters="sRGB">
<feFlood flood-opacity="0" result="BackgroundImageFix"/>
<feColorMatrix in="SourceAlpha" type="matrix" values="0 0 0 0 0 0 0 0 0 0 0 0 0 0 0 0 0 0 127 0" result="hardAlpha"/>
<feOffset dy="2"/>
<feGaussianBlur stdDeviation="1.5"/>
<feColorMatrix type="matrix" values="0 0 0 0 0 0 0 0 0 0 0 0 0 0 0 0 0 0 0.2 0"/>
<feBlend mode="normal" in2="BackgroundImageFix" result="effect1_dropShadow_1323_6897"/>
<feBlend mode="normal" in="SourceGraphic" in2="effect1_dropShadow_1323_6897" result="shape"/>
</filter>
</defs>
</svg>
