<svg width="24" height="24" viewBox="0 0 24 24" fill="none" xmlns="http://www.w3.org/2000/svg">
<g clip-path="url(#clip0_1569_7771)">
<path d="M11.9993 8.72729C10.1938 8.72729 8.72656 10.1946 8.72656 12C8.72656 13.8055 10.1938 15.2728 11.9993 15.2728C13.8048 15.2728 15.272 13.8055 15.272 12C15.272 10.1946 13.8047 8.72729 11.9993 8.72729Z" fill="#694A04"/>
<path d="M12 3.81821C6.54546 3.81821 1.88729 7.2109 0 12C1.88729 16.7891 6.54546 20.1819 12 20.1819C17.46 20.1819 22.1128 16.7891 24.0001 12C22.1128 7.2109 17.46 3.81821 12 3.81821ZM12 17.4545C8.98911 17.4545 6.54546 15.0109 6.54546 12C6.54546 8.98907 8.98911 6.54546 12 6.54546C15.0109 6.54546 17.4546 8.98912 17.4546 12C17.4546 15.0109 15.0109 17.4545 12 17.4545Z" fill="#694A04"/>
</g>
<defs>
<clipPath id="clip0_1569_7771">
<rect width="24" height="24" fill="white"/>
</clipPath>
</defs>
</svg>
