<svg width="26" height="29" viewBox="0 0 26 29" fill="none" xmlns="http://www.w3.org/2000/svg">
<g filter="url(#filter0_d_129_40)">
<path d="M15.4694 7.22831L13.3084 9.38931L12.3307 8.41163C12.0263 8.10721 11.5327 8.10721 11.2283 8.41163C10.9239 8.71604 10.9239 9.20956 11.2283 9.51398L12.7572 11.0429C12.9094 11.1951 13.1089 11.2712 13.3083 11.2712C13.5078 11.2712 13.7073 11.1951 13.8595 11.0429L16.5717 8.33066C16.8761 8.02625 16.8761 7.53273 16.5717 7.22831C16.2673 6.9239 15.7738 6.9239 15.4694 7.22831Z" fill="white" stroke="white" stroke-width="0.3"/>
<path d="M13.6537 1.39664C8.92713 1.39664 5.08177 5.242 5.08177 9.96856V11.0946L3.80216 15.3263C3.702 15.6575 3.88118 16.0086 4.20809 16.1219L6.38892 16.8775V19.9073C6.38892 20.2633 6.6775 20.5518 7.03345 20.5518H10.3105V22.7521C10.3105 23.1081 10.599 23.3966 10.955 23.3966H18.7981C19.1541 23.3966 19.4427 23.1081 19.4427 22.7521V16.2899C21.215 14.6663 22.2256 12.3794 22.2256 9.96856C22.2257 5.242 18.3803 1.39664 13.6537 1.39664ZM18.3797 15.5094C18.2363 15.6319 18.1536 15.811 18.1536 15.9996V22.1076H11.5996V19.9073C11.5996 19.5514 11.311 19.2628 10.955 19.2628H7.67803V16.4187C7.67803 16.144 7.504 15.8996 7.24452 15.8097L5.21532 15.1066L6.34325 11.3765C6.36155 11.316 6.37083 11.2532 6.37083 11.1899V9.96856C6.37083 5.95279 9.63792 2.6857 13.6537 2.6857C17.6696 2.6857 20.9366 5.95279 20.9366 9.96856C20.9366 12.1024 20.0046 14.122 18.3797 15.5094Z" fill="white" stroke="white" stroke-width="0.3"/>
</g>
<defs>
<filter id="filter0_d_129_40" x="0" y="-1" width="26" height="30" filterUnits="userSpaceOnUse" color-interpolation-filters="sRGB">
<feFlood flood-opacity="0" result="BackgroundImageFix"/>
<feColorMatrix in="SourceAlpha" type="matrix" values="0 0 0 0 0 0 0 0 0 0 0 0 0 0 0 0 0 0 127 0" result="hardAlpha"/>
<feOffset dy="2"/>
<feGaussianBlur stdDeviation="1.5"/>
<feColorMatrix type="matrix" values="0 0 0 0 0 0 0 0 0 0 0 0 0 0 0 0 0 0 0.2 0"/>
<feBlend mode="normal" in2="BackgroundImageFix" result="effect1_dropShadow_129_40"/>
<feBlend mode="normal" in="SourceGraphic" in2="effect1_dropShadow_129_40" result="shape"/>
</filter>
</defs>
</svg>
