<svg width="28" height="28" viewBox="0 0 28 28" fill="none" xmlns="http://www.w3.org/2000/svg">
<g clip-path="url(#clip0_129_346)" filter="url(#filter0_d_129_346)">
<path d="M3 1.78572V7.28573H4.57144V2.57144H9.28573V1H3.78572C3.35141 1 3 1.35141 3 1.78572H3Z" fill="white" stroke="white" stroke-width="0.3"/>
<path d="M24.2144 1H18.7144V2.57144H23.4286V7.28573H25.0001V1.78572C25.0001 1.35141 24.6487 1 24.2144 1V1Z" fill="white" stroke="white" stroke-width="0.3"/>
<path d="M23.4286 21.4285H18.7144V23H24.2144C24.6487 23 25.0001 22.6486 25.0001 22.2143V16.7143H23.4286V21.4285Z" fill="white" stroke="white" stroke-width="0.3"/>
<path d="M4.57144 16.7143H3V22.2143C3 22.6486 3.35141 23 3.78572 23H9.28573V21.4285H4.57144V16.7143Z" fill="white" stroke="white" stroke-width="0.3"/>
</g>
<defs>
<filter id="filter0_d_129_346" x="0" y="0" width="28" height="28" filterUnits="userSpaceOnUse" color-interpolation-filters="sRGB">
<feFlood flood-opacity="0" result="BackgroundImageFix"/>
<feColorMatrix in="SourceAlpha" type="matrix" values="0 0 0 0 0 0 0 0 0 0 0 0 0 0 0 0 0 0 127 0" result="hardAlpha"/>
<feOffset dy="2"/>
<feGaussianBlur stdDeviation="1.5"/>
<feColorMatrix type="matrix" values="0 0 0 0 0 0 0 0 0 0 0 0 0 0 0 0 0 0 0.2 0"/>
<feBlend mode="normal" in2="BackgroundImageFix" result="effect1_dropShadow_129_346"/>
<feBlend mode="normal" in="SourceGraphic" in2="effect1_dropShadow_129_346" result="shape"/>
</filter>
<clipPath id="clip0_129_346">
<rect width="22" height="22" fill="white" transform="translate(3 1)"/>
</clipPath>
</defs>
</svg>
