<svg width="28" height="28" viewBox="0 0 28 28" fill="none" xmlns="http://www.w3.org/2000/svg">
<g filter="url(#filter0_d_129_324)">
<path d="M11.8945 9.59375C11.8945 9.11912 11.5098 8.73438 11.0352 8.73438H7.59766C7.12302 8.73438 6.73828 9.11912 6.73828 9.59375V11.1354H3V12.8541H6.73828V14.3203C6.73828 14.7949 7.12302 15.1797 7.59766 15.1797H11.0352C11.5098 15.1797 11.8945 14.7949 11.8945 14.3203V12.8541H25V11.1354H11.8945V9.59375ZM10.1758 13.4609H8.45703V10.4531H10.1758V13.4609Z" fill="white"/>
<path d="M21.5195 17.4141C21.5195 16.9394 21.1348 16.5547 20.6602 16.5547H17.2227C16.748 16.5547 16.3633 16.9394 16.3633 17.4141V18.918H3V20.6367H16.3633V22.1406C16.3633 22.6153 16.748 23 17.2227 23H20.6602C21.1348 23 21.5195 22.6153 21.5195 22.1406V20.6367H25V18.918H21.5195V17.4141ZM19.8008 21.2812H18.082V18.2734H19.8008V21.2812Z" fill="white"/>
<path d="M21.6055 3.40625V1.85938C21.6055 1.38474 21.2207 1 20.7461 1H17.3086C16.834 1 16.4492 1.38474 16.4492 1.85938V3.40625H3V5.125H16.4492V6.58594C16.4492 7.06057 16.834 7.44531 17.3086 7.44531H20.7461C21.2207 7.44531 21.6055 7.06057 21.6055 6.58594V5.125H25V3.40625H21.6055ZM19.8867 5.72656H18.168V2.71875H19.8867V5.72656Z" fill="white"/>
</g>
<defs>
<filter id="filter0_d_129_324" x="0" y="0" width="28" height="28" filterUnits="userSpaceOnUse" color-interpolation-filters="sRGB">
<feFlood flood-opacity="0" result="BackgroundImageFix"/>
<feColorMatrix in="SourceAlpha" type="matrix" values="0 0 0 0 0 0 0 0 0 0 0 0 0 0 0 0 0 0 127 0" result="hardAlpha"/>
<feOffset dy="2"/>
<feGaussianBlur stdDeviation="1.5"/>
<feColorMatrix type="matrix" values="0 0 0 0 0 0 0 0 0 0 0 0 0 0 0 0 0 0 0.2 0"/>
<feBlend mode="normal" in2="BackgroundImageFix" result="effect1_dropShadow_129_324"/>
<feBlend mode="normal" in="SourceGraphic" in2="effect1_dropShadow_129_324" result="shape"/>
</filter>
</defs>
</svg>
