<svg width="28" height="28" viewBox="0 0 28 28" fill="none" xmlns="http://www.w3.org/2000/svg">
<g filter="url(#filter0_d_129_63)">
<path d="M4.93359 7.53125H3V9.25H4.93359V7.53125Z" fill="white"/>
<path d="M5.6145 11.7258L3.79102 12.6441L4.56409 14.1791L6.38758 13.2607L5.6145 11.7258Z" fill="white"/>
<path d="M4.56458 2.49198L3.7915 4.02695L5.57208 4.92372L6.34516 3.38875L4.56458 2.49198Z" fill="white"/>
<path d="M25 7.53125H23.0664V9.25H25V7.53125Z" fill="white"/>
<path d="M22.3854 11.7262L21.6123 13.2612L23.4358 14.1796L24.2089 12.6446L22.3854 11.7262Z" fill="white"/>
<path d="M23.4354 2.49177L21.6548 3.38854L22.4279 4.92352L24.2084 4.02675L23.4354 2.49177Z" fill="white"/>
<path d="M21.3905 8.34151C21.3639 4.28887 18.0588 1 14 1C9.94121 1 6.6361 4.28887 6.60955 8.34151L6.60938 8.39062H6.60946C6.62308 11.342 7.86436 12.9754 8.9602 14.4175C9.87676 15.6236 10.6007 16.5763 10.6007 18.1622V20.4219C10.6007 21.8435 11.7572 23 13.1788 23H14.8212C16.2428 23 17.3993 21.8435 17.3993 20.4219V18.1623C17.3993 16.5763 18.1232 15.6236 19.0398 14.4175C20.1356 12.9754 21.3769 11.342 21.3905 8.39062L21.3906 8.34151H21.3905ZM15.6805 20.4219C15.6805 20.8957 15.295 21.2812 14.8212 21.2812H13.1788C12.7049 21.2812 12.3194 20.8957 12.3194 20.4219V18.7461H15.6805V20.4219ZM17.6713 13.3776C16.8761 14.4241 16.0588 15.4995 15.7804 17.0273H12.2196C11.9412 15.4995 11.1239 14.4241 10.3287 13.3776C9.30373 12.0288 8.33547 10.7546 8.32812 8.36875C8.33994 5.25124 10.8798 2.71875 14 2.71875C17.1202 2.71875 19.6601 5.25124 19.6718 8.36875C19.6645 10.7546 18.6962 12.0288 17.6713 13.3776Z" fill="white"/>
</g>
<defs>
<filter id="filter0_d_129_63" x="0" y="0" width="28" height="28" filterUnits="userSpaceOnUse" color-interpolation-filters="sRGB">
<feFlood flood-opacity="0" result="BackgroundImageFix"/>
<feColorMatrix in="SourceAlpha" type="matrix" values="0 0 0 0 0 0 0 0 0 0 0 0 0 0 0 0 0 0 127 0" result="hardAlpha"/>
<feOffset dy="2"/>
<feGaussianBlur stdDeviation="1.5"/>
<feColorMatrix type="matrix" values="0 0 0 0 0 0 0 0 0 0 0 0 0 0 0 0 0 0 0.2 0"/>
<feBlend mode="normal" in2="BackgroundImageFix" result="effect1_dropShadow_129_63"/>
<feBlend mode="normal" in="SourceGraphic" in2="effect1_dropShadow_129_63" result="shape"/>
</filter>
</defs>
</svg>
