<svg width="28" height="28" viewBox="0 0 28 28" fill="none" xmlns="http://www.w3.org/2000/svg">
<g filter="url(#filter0_d_129_89)">
<path d="M22.8516 5.8125H20.7891C19.6044 5.8125 18.6406 6.77629 18.6406 7.96094V20.8516C18.6406 22.0362 19.6044 23 20.7891 23H22.8516C24.0362 23 25 22.0362 25 20.8516V7.96094C25 6.77629 24.0362 5.8125 22.8516 5.8125ZM23.2812 20.8516C23.2812 21.0885 23.0885 21.2812 22.8516 21.2812H20.7891C20.5521 21.2812 20.3594 21.0885 20.3594 20.8516V7.96094C20.3594 7.72401 20.5521 7.53125 20.7891 7.53125H22.8516C23.0885 7.53125 23.2812 7.72401 23.2812 7.96094V20.8516Z" fill="white"/>
<path d="M7.21094 12.3438H5.14844C3.96379 12.3438 3 13.3075 3 14.4922V20.8516C3 22.0362 3.96379 23 5.14844 23H7.21094C8.39559 23 9.35938 22.0362 9.35938 20.8516V14.4922C9.35938 13.3075 8.39559 12.3438 7.21094 12.3438ZM7.64062 20.8516C7.64062 21.0885 7.44787 21.2812 7.21094 21.2812H5.14844C4.91151 21.2812 4.71875 21.0885 4.71875 20.8516V14.4922C4.71875 14.2553 4.91151 14.0625 5.14844 14.0625H7.21094C7.44787 14.0625 7.64062 14.2553 7.64062 14.4922V20.8516Z" fill="white"/>
<path d="M15.0312 1H12.9688C11.7841 1 10.8203 1.96379 10.8203 3.14844V20.8516C10.8203 22.0362 11.7841 23 12.9688 23H15.0312C16.2159 23 17.1797 22.0362 17.1797 20.8516V3.14844C17.1797 1.96379 16.2159 1 15.0312 1ZM15.4609 20.8516C15.4609 21.0885 15.2682 21.2812 15.0312 21.2812H12.9688C12.7318 21.2812 12.5391 21.0885 12.5391 20.8516V3.14844C12.5391 2.91151 12.7318 2.71875 12.9688 2.71875H15.0312C15.2682 2.71875 15.4609 2.91151 15.4609 3.14844V20.8516Z" fill="white"/>
</g>
<defs>
<filter id="filter0_d_129_89" x="0" y="0" width="28" height="28" filterUnits="userSpaceOnUse" color-interpolation-filters="sRGB">
<feFlood flood-opacity="0" result="BackgroundImageFix"/>
<feColorMatrix in="SourceAlpha" type="matrix" values="0 0 0 0 0 0 0 0 0 0 0 0 0 0 0 0 0 0 127 0" result="hardAlpha"/>
<feOffset dy="2"/>
<feGaussianBlur stdDeviation="1.5"/>
<feColorMatrix type="matrix" values="0 0 0 0 0 0 0 0 0 0 0 0 0 0 0 0 0 0 0.2 0"/>
<feBlend mode="normal" in2="BackgroundImageFix" result="effect1_dropShadow_129_89"/>
<feBlend mode="normal" in="SourceGraphic" in2="effect1_dropShadow_129_89" result="shape"/>
</filter>
</defs>
</svg>
