<svg width="16" height="17" viewBox="0 0 16 17" fill="none" xmlns="http://www.w3.org/2000/svg">
<path d="M0.371814 15.8753C0.619285 16.1235 0.944731 16.2473 1.26914 16.2473C1.59371 16.2473 1.91899 16.1235 2.16646 15.8753L8 10.0416L13.8335 15.8753C14.0812 16.1235 14.4065 16.2473 14.7309 16.2473C15.0551 16.2473 15.3804 16.1235 15.6282 15.8753C16.1238 15.3797 16.1238 14.5763 15.6282 14.0806L9.79429 8.2471L15.3288 2.71261C15.8246 2.21715 15.8246 1.41343 15.3288 0.917968C14.8333 0.422158 14.03 0.422158 13.5341 0.917968L7.99983 6.45229L2.46568 0.917794C1.97004 0.421984 1.1665 0.421984 0.671211 0.917794C0.175401 1.41326 0.175401 2.21697 0.671211 2.71244L6.20553 8.24693L0.372162 14.0805C-0.123996 14.5759 -0.123996 15.3793 0.371814 15.8753Z" fill="white"/>
</svg>
