<svg width="20" height="22" viewBox="0 0 20 22" fill="none" xmlns="http://www.w3.org/2000/svg">
<g filter="url(#filter0_d_1606_3544)">
<path d="M3.71401 17C3.61636 17 3.51868 16.9748 3.43054 16.9246C3.25251 16.8231 3.14258 16.6339 3.14258 16.4285V1.57058C3.14258 1.36519 3.25251 1.17601 3.43054 1.07445C3.61022 0.973439 3.82844 0.97567 4.00475 1.07836L16.5762 8.50735C16.7503 8.6106 16.8569 8.79755 16.8569 8.99957C16.8569 9.20159 16.7503 9.38855 16.5762 9.49179L4.00475 16.9207C3.9149 16.9732 3.81443 17 3.71401 17ZM4.28544 2.57172V15.4274L15.1621 8.99957L4.28544 2.57172Z" fill="white"/>
</g>
<defs>
<filter id="filter0_d_1606_3544" x="-1" y="0" width="22" height="22" filterUnits="userSpaceOnUse" color-interpolation-filters="sRGB">
<feFlood flood-opacity="0" result="BackgroundImageFix"/>
<feColorMatrix in="SourceAlpha" type="matrix" values="0 0 0 0 0 0 0 0 0 0 0 0 0 0 0 0 0 0 127 0" result="hardAlpha"/>
<feOffset dy="2"/>
<feGaussianBlur stdDeviation="1.5"/>
<feColorMatrix type="matrix" values="0 0 0 0 0 0 0 0 0 0 0 0 0 0 0 0 0 0 0.2 0"/>
<feBlend mode="normal" in2="BackgroundImageFix" result="effect1_dropShadow_1606_3544"/>
<feBlend mode="normal" in="SourceGraphic" in2="effect1_dropShadow_1606_3544" result="shape"/>
</filter>
</defs>
</svg>
