<svg width="28" height="28" viewBox="0 0 28 28" fill="none" xmlns="http://www.w3.org/2000/svg">
<g clip-path="url(#clip0_1422_299)" filter="url(#filter0_d_1422_299)">
<path d="M14.8594 1H13.1406V12.8594H14.8594V1Z" fill="white"/>
<path d="M21.4439 5.02877C20.0784 3.66327 18.4039 2.71916 16.5781 2.26163V4.04934C20.1812 5.15433 22.8086 8.51229 22.8086 12.4727C22.8086 17.3297 18.8571 21.2813 14 21.2813C9.14294 21.2813 5.19141 17.3297 5.19141 12.4727C5.19141 8.51229 7.81877 5.15433 11.4219 4.04934V2.26163C9.59609 2.71916 7.92155 3.66327 6.55609 5.02877C4.56771 7.01715 3.47266 9.6608 3.47266 12.4727C3.47266 15.2846 4.56771 17.9282 6.55609 19.9166C8.54447 21.905 11.1881 23 14 23C16.8119 23 19.4555 21.905 21.4439 19.9166C23.4323 17.9282 24.5273 15.2846 24.5273 12.4727C24.5273 9.6608 23.4323 7.01715 21.4439 5.02877Z" fill="white"/>
</g>
<defs>
<filter id="filter0_d_1422_299" x="0" y="0" width="28" height="28" filterUnits="userSpaceOnUse" color-interpolation-filters="sRGB">
<feFlood flood-opacity="0" result="BackgroundImageFix"/>
<feColorMatrix in="SourceAlpha" type="matrix" values="0 0 0 0 0 0 0 0 0 0 0 0 0 0 0 0 0 0 127 0" result="hardAlpha"/>
<feOffset dy="2"/>
<feGaussianBlur stdDeviation="1.5"/>
<feColorMatrix type="matrix" values="0 0 0 0 0 0 0 0 0 0 0 0 0 0 0 0 0 0 0.2 0"/>
<feBlend mode="normal" in2="BackgroundImageFix" result="effect1_dropShadow_1422_299"/>
<feBlend mode="normal" in="SourceGraphic" in2="effect1_dropShadow_1422_299" result="shape"/>
</filter>
<clipPath id="clip0_1422_299">
<rect width="22" height="22" fill="white" transform="translate(3 1)"/>
</clipPath>
</defs>
</svg>
