<svg width="28" height="28" viewBox="0 0 28 28" fill="none" xmlns="http://www.w3.org/2000/svg">
<g filter="url(#filter0_d_1323_6906)">
<path d="M25 13.4498V10.5503L22.0697 9.77087C21.887 9.10923 21.6225 8.47377 21.2795 7.87199L22.7781 5.2692L20.7308 3.22187L18.128 4.72045C17.5264 4.37747 16.8908 4.113 16.2292 3.9303L15.4498 1H12.5502L11.7708 3.93025C11.1092 4.11296 10.4736 4.37747 9.87195 4.72041L7.26916 3.22183L5.22187 5.26916L6.72045 7.87191C6.37739 8.47368 6.11296 9.10919 5.9303 9.77078L3 10.5502V13.4497L5.93034 14.2291C6.11304 14.8908 6.37752 15.5263 6.72049 16.128L5.22191 18.7308L7.2692 20.7781L9.87199 19.2795C10.4736 19.6225 11.1092 19.887 11.7708 20.0697L12.5502 23H15.4498L16.2293 20.0698C16.8909 19.887 17.5264 19.6226 18.1281 19.2796L20.7308 20.7782L22.7781 18.7308L21.2796 16.1281C21.6226 15.5264 21.887 14.8909 22.0697 14.2292L25 13.4498ZM20.6209 12.8361L20.5133 13.3559C20.3452 14.1683 20.025 14.9379 19.562 15.6432L19.2717 16.0853L20.6314 18.4469L20.4469 18.6314L18.0853 17.2716L17.6432 17.5619C16.9379 18.025 16.1683 18.3451 15.3559 18.5132L14.8361 18.6209L14.1284 21.2812H13.8716L13.164 18.6208L12.6441 18.5132C11.8317 18.345 11.0621 18.0249 10.3568 17.5618L9.9147 17.2716L7.5531 18.6313L7.36863 18.4469L8.72834 16.0853L8.43808 15.6432C7.97496 14.9379 7.65489 14.1683 7.48675 13.3559L7.37916 12.836L4.71875 12.1284V11.8716L7.37912 11.1639L7.48671 10.644C7.6548 9.83171 7.97492 9.06218 8.43804 8.35677L8.72829 7.91466L7.36859 5.55305L7.55305 5.36859L9.9147 6.72834L10.3569 6.43804C11.0621 5.97501 11.8316 5.65493 12.644 5.48675L13.1639 5.37916L13.8716 2.71875H14.1284L14.836 5.37916L15.3559 5.48675C16.1683 5.65493 16.9379 5.97501 17.6431 6.43804L18.0853 6.72834L20.4469 5.36859L20.6314 5.55305L19.2717 7.91466L19.5619 8.35677C20.0251 9.06214 20.3452 9.83171 20.5132 10.644L20.6208 11.1639L23.2812 11.8716V12.1284L20.6209 12.8361Z" fill="white"/>
<path d="M14 7.01562C11.2516 7.01562 9.01562 9.25163 9.01562 12C9.01562 14.7484 11.2516 16.9844 14 16.9844C16.7484 16.9844 18.9844 14.7484 18.9844 12C18.9844 9.25163 16.7484 7.01562 14 7.01562ZM14 15.2656C12.1994 15.2656 10.7344 13.8007 10.7344 12C10.7344 10.1993 12.1994 8.73438 14 8.73438C15.8006 8.73438 17.2656 10.1993 17.2656 12C17.2656 13.8007 15.8006 15.2656 14 15.2656Z" fill="white"/>
</g>
<defs>
<filter id="filter0_d_1323_6906" x="0" y="0" width="28" height="28" filterUnits="userSpaceOnUse" color-interpolation-filters="sRGB">
<feFlood flood-opacity="0" result="BackgroundImageFix"/>
<feColorMatrix in="SourceAlpha" type="matrix" values="0 0 0 0 0 0 0 0 0 0 0 0 0 0 0 0 0 0 127 0" result="hardAlpha"/>
<feOffset dy="2"/>
<feGaussianBlur stdDeviation="1.5"/>
<feColorMatrix type="matrix" values="0 0 0 0 0 0 0 0 0 0 0 0 0 0 0 0 0 0 0.2 0"/>
<feBlend mode="normal" in2="BackgroundImageFix" result="effect1_dropShadow_1323_6906"/>
<feBlend mode="normal" in="SourceGraphic" in2="effect1_dropShadow_1323_6906" result="shape"/>
</filter>
</defs>
</svg>
