<svg width="22" height="22" viewBox="0 0 22 22" fill="none" xmlns="http://www.w3.org/2000/svg">
<g clip-path="url(#clip0_590_6)">
<path d="M5.49988 7.38132L12.2 2.02149V19.9805L5.49995 14.6196L5.22602 14.4004H4.8752H1.46667C1.21017 14.4004 1 14.1904 1 13.9338V8.0671C1 7.81125 1.21082 7.60043 1.46667 7.60043H4.8752H5.22597L5.49988 7.38132Z" stroke="white" stroke-width="2"/>
<path d="M16.9121 5.81427C16.6231 5.52974 16.1597 5.53414 15.8752 5.82014C15.5906 6.10907 15.5936 6.57254 15.881 6.85854C16.9898 7.95268 17.5999 9.42374 17.5999 11.0004C17.5999 12.5771 16.9898 14.0481 15.881 15.1423C15.5936 15.4253 15.5906 15.8903 15.8752 16.1792C16.0189 16.3244 16.2081 16.3963 16.3958 16.3963C16.5821 16.3963 16.7683 16.3259 16.9121 16.1836C18.3025 14.8152 19.0666 12.9731 19.0666 11.0004C19.0666 9.02774 18.3025 7.18561 16.9121 5.81427Z" fill="white"/>
<path d="M18.9816 3.74774C18.6927 3.46174 18.2292 3.46467 17.9432 3.75214C17.6587 4.03961 17.6616 4.50454 17.9476 4.78907C19.6152 6.44201 20.5333 8.64787 20.5333 11.0004C20.5333 13.3529 19.6152 15.5573 17.9476 17.2103C17.6616 17.4963 17.6587 17.9612 17.9432 18.2487C18.0884 18.3924 18.2761 18.4643 18.4639 18.4643C18.6501 18.4643 18.8379 18.3939 18.9816 18.2516C20.9293 16.3229 22 13.7475 22 11.0004C22 8.25334 20.9293 5.67787 18.9816 3.74774Z" fill="white"/>
</g>
<defs>
<clipPath id="clip0_590_6">
<rect width="22" height="22" fill="white"/>
</clipPath>
</defs>
</svg>
