<svg width="60" height="60" viewBox="0 0 60 60" fill="none" xmlns="http://www.w3.org/2000/svg">
<g clip-path="url(#clip0_134_1750)">
<path d="M30 60C46.5685 60 60 46.5685 60 30C60 13.4315 46.5685 0 30 0C13.4315 0 0 13.4315 0 30C0 46.5685 13.4315 60 30 60Z" fill="#FFD93B"/>
<path d="M60.0006 30C60.0006 46.575 46.5662 60 30.0006 60C20.5693 60 12.1506 55.65 6.64746 48.8344C11.7943 52.9969 18.3475 55.4813 25.4818 55.4813C42.0475 55.4813 55.4818 42.0563 55.4818 25.4813C55.4818 18.3469 52.9975 11.7938 48.835 6.64691C55.6412 12.15 60.0006 20.5688 60.0006 30Z" fill="#F4C534"/>
<path d="M31.5836 27.3019C31.8273 33.8119 37.3173 39.0863 43.8498 39.0863C50.3823 39.0863 55.4767 33.8119 55.233 27.3019C54.9892 20.7919 49.4992 15.5026 42.9667 15.5026C36.4342 15.5026 31.3398 20.7919 31.5836 27.3019Z" fill="#F4C534"/>
<path d="M33.514 26.6944C33.154 32.1525 37.2921 36.8512 42.7559 37.1869C48.2196 37.5225 52.9409 33.3675 53.3009 27.9094C53.6609 22.4344 49.5246 17.7375 44.0609 17.4019C38.5953 17.0662 33.874 21.2194 33.514 26.6944Z" fill="white"/>
<path d="M34.9883 27.1294C34.9883 29.7357 37.077 31.8094 39.6683 31.8094C42.2445 31.8094 44.3483 29.7207 44.3633 27.1294C44.3483 24.5382 42.2595 22.4494 39.6683 22.4494C37.077 22.4494 34.9883 24.555 34.9883 27.1294Z" fill="#3E4347"/>
<path d="M36.8105 26.58C37.2342 26.9888 37.973 26.91 38.4904 26.3906C39.0079 25.8731 39.1036 25.1194 38.6948 24.7106C38.2861 24.3019 37.5323 24.3806 37.0148 24.8981C36.4955 25.4175 36.4017 26.1713 36.8105 26.58Z" fill="#5A5F63"/>
<path d="M32.9033 16.4981C32.9033 16.4981 38.6446 11.1 48.6571 11.9831C48.6571 11.9831 35.4064 6.9281 32.9033 16.4981Z" fill="#3E4347"/>
<path d="M27.6246 27.3019C27.3808 33.8119 21.8908 39.0863 15.3583 39.0863C8.82582 39.0863 3.73144 33.8119 3.97519 27.3019C4.21894 20.7919 9.70894 15.5025 16.2414 15.5025C22.7739 15.5025 27.8683 20.7919 27.6246 27.3019Z" fill="#F4C534"/>
<path d="M25.6927 26.6944C26.0527 32.1525 21.9146 36.8512 16.4508 37.1869C10.9871 37.5225 6.26583 33.3675 5.90583 27.9094C5.54395 22.4344 9.68208 17.7375 15.1458 17.4019C20.6096 17.0662 25.3308 21.2194 25.6927 26.6944Z" fill="white"/>
<path d="M24.2168 27.1294C24.2168 29.7357 22.1281 31.8094 19.5368 31.8094C16.9605 31.8094 14.8568 29.7207 14.8418 27.1294C14.8568 24.5382 16.9455 22.4494 19.5368 22.4494C22.1281 22.4494 24.2168 24.555 24.2168 27.1294Z" fill="#3E4347"/>
<path d="M22.3964 26.58C21.9727 26.9888 21.2339 26.91 20.7164 26.3906C20.1989 25.8731 20.1033 25.1194 20.512 24.7106C20.9208 24.3019 21.6745 24.3806 22.192 24.8981C22.7095 25.4175 22.8052 26.1713 22.3964 26.58Z" fill="#5A5F63"/>
<path d="M26.3026 16.4981C26.3026 16.4981 20.5613 11.1 10.5488 11.9831C10.5488 11.9831 23.7995 6.9281 26.3026 16.4981Z" fill="#3E4347"/>
<path d="M44.3082 14.4769C37.8751 14.4769 32.4751 18.9431 31.0145 24.9356C30.1182 24.5944 29.087 24.5944 28.1907 24.9375C26.7301 18.945 21.3301 14.4769 14.8951 14.4769C7.34262 14.4769 1.19824 20.6231 1.19824 28.1737C1.19824 35.7244 7.34449 41.8706 14.8951 41.8706C22.4476 41.8706 28.592 35.7244 28.592 28.1737C28.592 27.2156 29.3645 27.1387 29.6026 27.1387C29.837 27.1387 30.6114 27.2156 30.6114 28.1737C30.6114 35.7262 36.7576 41.8706 44.3082 41.8706C51.8607 41.8706 58.0051 35.7244 58.0051 28.1737C58.0051 20.6231 51.8607 14.4769 44.3082 14.4769ZM14.8951 39.3075C8.75637 39.3075 3.76137 34.3144 3.76137 28.1737C3.76137 22.0331 8.75637 17.0419 14.8951 17.0419C21.0339 17.0419 26.0289 22.035 26.0289 28.1756C26.0289 34.3162 21.0357 39.3075 14.8951 39.3075ZM44.3082 39.3075C38.1695 39.3075 33.1745 34.3144 33.1745 28.1737C33.1745 22.0331 38.1676 17.04 44.3082 17.04C50.4489 17.04 55.442 22.0331 55.442 28.1737C55.442 34.3144 50.4489 39.3075 44.3082 39.3075Z" fill="#3E4347"/>
<path d="M29.9999 53.64C33.1469 53.64 35.698 51.3314 35.698 48.4837C35.698 45.636 33.1469 43.3275 29.9999 43.3275C26.8529 43.3275 24.3018 45.636 24.3018 48.4837C24.3018 51.3314 26.8529 53.64 29.9999 53.64Z" fill="#3E4347"/>
</g>
<defs>
<clipPath id="clip0_134_1750">
<rect width="60" height="60" fill="white"/>
</clipPath>
</defs>
</svg>
