<svg width="60" height="60" viewBox="0 0 60 60" fill="none" xmlns="http://www.w3.org/2000/svg">
<g clip-path="url(#clip0_134_1690)">
<path d="M30 60C46.5685 60 60 46.5685 60 30C60 13.4315 46.5685 0 30 0C13.4315 0 0 13.4315 0 30C0 46.5685 13.4315 60 30 60Z" fill="#FFD93B"/>
<path d="M60.0006 30C60.0006 46.575 46.5662 60 30.0006 60C20.5693 60 12.1506 55.65 6.64746 48.8344C11.7943 52.9969 18.3475 55.4813 25.4818 55.4813C42.0475 55.4813 55.4818 42.0563 55.4818 25.4813C55.4818 18.3469 52.9975 11.7938 48.835 6.64688C55.6412 12.15 60.0006 20.5688 60.0006 30Z" fill="#F4C534"/>
<path d="M50.5448 37.8844C48.3323 47.1844 39.9885 54.1219 29.9948 54.1219C20.001 54.1219 11.6573 47.1844 9.44477 37.8656C9.27602 37.1531 9.93227 36.5344 10.626 36.7406C23.6385 40.6219 36.5573 40.6969 49.3635 36.7594C50.076 36.5344 50.7135 37.1719 50.5448 37.8844Z" fill="#3E4347"/>
<path d="M28.7862 46.2563C21.1062 46.2563 15.635 43.9969 16.7 49.3369C16.7056 49.365 16.7168 49.3913 16.7225 49.4194C20.3468 52.3575 24.9593 54.12 29.9937 54.12C35.0281 54.12 39.6406 52.3556 43.265 49.4213C43.2706 49.3913 43.2818 49.365 43.2875 49.3369C44.3525 43.9969 36.4681 46.2563 28.7862 46.2563Z" fill="#E24B4B"/>
<path d="M10.9248 36.8194C12.0592 40.8881 20.1404 44.0269 29.9561 44.0269C39.7361 44.0269 47.7911 40.9106 48.9723 36.8625C36.3929 40.65 23.7048 40.5731 10.9248 36.8194Z" fill="white"/>
<path d="M42.5164 36.6863C48.888 36.6863 54.0532 31.521 54.0532 25.1494C54.0532 18.7777 48.888 13.6125 42.5164 13.6125C36.1447 13.6125 30.9795 18.7777 30.9795 25.1494C30.9795 31.521 36.1447 36.6863 42.5164 36.6863Z" fill="#F4C534"/>
<path d="M52.3913 25.1531C52.0876 30.6412 47.4226 35.0869 41.9682 35.0869C36.5157 35.0869 32.3251 30.6394 32.6288 25.1531C32.9326 19.665 37.6163 15.2025 43.0688 15.2025C48.5213 15.2025 52.6951 19.6669 52.3913 25.1531Z" fill="white"/>
<path d="M47.1901 25.1456C47.2014 27.7313 45.0958 29.8369 42.5101 29.8256C39.9245 29.8369 37.817 27.7294 37.8301 25.1438C37.8189 22.5581 39.9245 20.4525 42.5101 20.4638C45.0958 20.4525 47.2014 22.56 47.1901 25.1456Z" fill="#3E4347"/>
<path d="M44.8618 22.7945C44.3163 22.249 43.5903 22.0905 43.2403 22.4405C42.8903 22.7905 43.0488 23.5165 43.5943 24.062C44.1398 24.6075 44.8658 24.766 45.2158 24.416C45.5658 24.066 45.4073 23.34 44.8618 22.7945Z" fill="white"/>
<path d="M17.4871 36.6863C23.8587 36.6863 29.0239 31.521 29.0239 25.1494C29.0239 18.7777 23.8587 13.6125 17.4871 13.6125C11.1154 13.6125 5.9502 18.7777 5.9502 25.1494C5.9502 31.521 11.1154 36.6863 17.4871 36.6863Z" fill="#F4C534"/>
<path d="M7.61129 25.1531C7.91504 30.6412 12.58 35.0869 18.0344 35.0869C23.4869 35.0869 27.6775 30.6394 27.3738 25.1531C27.07 19.665 22.3863 15.2025 16.9338 15.2025C11.4794 15.2025 7.30754 19.6669 7.61129 25.1531Z" fill="white"/>
<path d="M12.8096 25.1456C12.7984 27.7313 14.904 29.8369 17.4896 29.8256C20.0752 29.8369 22.1809 27.7294 22.1696 25.1438C22.1809 22.5581 20.0752 20.4525 17.4896 20.4638C14.9059 20.4525 12.7984 22.56 12.8096 25.1456Z" fill="#3E4347"/>
<path d="M16.7607 22.444C16.4107 22.094 15.6847 22.2525 15.1392 22.798C14.5937 23.3435 14.4352 24.0694 14.7852 24.4194C15.1352 24.7695 15.8612 24.611 16.4067 24.0655C16.9522 23.5199 17.1107 22.794 16.7607 22.444Z" fill="white"/>
<path d="M18.1815 8.54626C18.1815 8.54626 12.0859 7.68938 5.68652 15.0975C5.68652 15.0975 9.82465 1.82626 18.1815 8.54626Z" fill="#3E4347"/>
<path d="M41.8174 8.54626C41.8174 8.54626 47.913 7.68938 54.3124 15.0975C54.3124 15.0975 50.1743 1.82626 41.8174 8.54626Z" fill="#3E4347"/>
</g>
<defs>
<clipPath id="clip0_134_1690">
<rect width="60" height="60" fill="white"/>
</clipPath>
</defs>
</svg>
